<svg id="svg" version="1.1" viewBox="0 0 149.7878359264498 300" width="149.7878359264498" height="300" xmlns="http://www.w3.org/2000/svg"><svg xmlns="http://www.w3.org/2000/svg"><defs><clipPath id="clip-1"><rect x="0" y="0" transform="scale(0.14642,0.14648)" width="1023" height="2048" fill="none"/></clipPath><linearGradient x1="105.89063" y1="128.73574" x2="108.6934" y2="127.51157" gradientUnits="userSpaceOnUse" id="color-1"><stop offset="0" stop-color="#deb9a6"/><stop offset="1" stop-color="#d7c6c3"/></linearGradient><linearGradient x1="114.16425" y1="145.70757" x2="112.46284" y2="146.21646" gradientUnits="userSpaceOnUse" id="color-2"><stop offset="0" stop-color="#caa8a4"/><stop offset="1" stop-color="#aa8f8a"/></linearGradient></defs><g clip-path="url(#clip-1)" fill="none" fill-rule="nonzero" stroke="none" stroke-width="1" stroke-linecap="butt" stroke-linejoin="miter" stroke-miterlimit="10" stroke-dasharray="" stroke-dashoffset="0" font-family="none" font-weight="none" font-size="none" text-anchor="none" style="mix-blend-mode: normal"><path d="M61.2417,145.23955c0.19049,0.05215 0.32125,0.13154 0.42184,0.31567c0.17658,0.32256 -0.03426,0.76157 -0.16765,1.06978c-0.22754,0.52734 -0.6791,0.94336 -1.13036,1.28027c-2.41125,1.80615 -4.15584,-0.26514 -6.36327,0.56104c-0.35273,0.61816 -0.90751,0.99316 -1.38718,1.49707c-0.67441,0.70898 -1.18469,1.5498 -1.61633,2.42432c-1.20387,2.43604 -1.63815,5.49902 -2.65387,7.51025c-0.01347,0.02637 -0.02782,0.05273 -0.04158,0.0791c1.43843,0.73975 3.84353,-0.09668 4.80873,0.60205l-0.06413,0.24609c-0.30382,0.26074 -0.5889,0.39844 -0.97311,0.49951c-1.1002,0.29297 -3.37484,0.27686 -4.40242,-0.31641c-1.41969,3.58887 -3.20294,6.74268 -6.61424,8.78467c-2.57143,1.53955 -5.87526,2.06982 -8.78872,1.31396c-1.60901,-0.41748 -3.1025,-1.35059 -3.93753,-2.82129c-0.81219,-1.43262 -0.88804,-3.34277 -0.42433,-4.90283c0.35375,-1.19092 1.15482,-2.26758 2.25912,-2.85938c1.15789,-0.61963 3.36108,-0.9126 4.65177,-0.50977c0.27908,0.08643 0.33633,0.11572 0.47338,0.37646c-0.05432,0.08203 -0.08053,0.19336 -0.16326,0.24756c-0.49944,0.3252 -2.36454,-0.0835 -3.79214,1.35791c-0.98233,0.99316 -1.46435,2.67188 -1.44941,4.04004c0.01303,1.18799 0.43414,2.37012 1.29992,3.20654c1.02494,0.98877 2.41974,1.36816 3.81322,1.3418c1.24325,-0.0249 2.78857,-0.38232 3.66226,-1.33301c0.02255,-0.02344 0.04363,-0.0498 0.06545,-0.07471c0.20074,-0.01904 0.3599,-0.08057 0.52799,-0.19189c2.26073,-1.48242 4.60243,-5.41406 5.12368,-8.02441c-0.35917,0.29736 -1.07341,0.43506 -1.53536,0.60498c-0.54117,0.19922 -0.83181,0.27832 -1.36683,0.03223l-0.01713,-0.29297c0.72829,-1.0957 2.34287,-0.67236 3.1924,-1.17041c0.04158,-0.0249 0.0817,-0.05127 0.1227,-0.07764c0.59813,-0.9873 0.9835,-2.20459 1.43477,-3.271c1.64459,-3.88623 3.43385,-6.65771 7.24516,-8.60889c-3.50442,-0.31494 -7.6137,-1.04883 -10.61385,1.34326c-1.00254,0.7998 -1.81546,1.92041 -1.93392,3.22998c-0.06545,0.72363 0.06999,1.52051 0.56943,2.07568c0.31934,0.35596 0.77954,0.60352 1.26053,0.62109c0.66416,0.0249 1.21543,-0.25342 1.69481,-0.69287l0.09444,-0.08789c0.61994,-0.37207 0.65347,-1.30078 1.17151,-1.77393c0.18742,-0.17139 0.32022,-0.10693 0.56299,-0.09375c0.00044,0.03516 0.00307,0.07031 0.00146,0.10547c-0.03587,0.71924 -0.81512,1.95557 -1.31676,2.44482c-0.78628,0.76758 -2.12573,1.13525 -3.19665,1.12793c-0.83752,-0.00439 -1.75616,-0.21826 -2.35634,-0.84082c-0.64674,-0.6709 -0.86227,-1.64355 -0.84133,-2.55029c0.03353,-1.45459 0.74367,-2.74365 1.78018,-3.73242c3.88087,-3.7043 10.93275,-2.53857 15.77341,-2.39209c2.08663,0.06299 3.59242,-0.26221 5.13657,-1.7209z" fill="#f7d2c0"/><path d="M56.77354,167.28369c0.11377,0.10107 0.21172,0.16553 0.35024,0.23145c0.91439,0.43945 1.94519,0.35303 2.86837,0c2.07887,-0.79395 4.538,-2.96338 5.50716,-4.97314c0.48846,-1.01221 0.65655,-2.2251 0.98102,-3.30029c0.57777,-1.91309 1.28513,-3.88623 2.10918,-5.7085c0.83708,-1.8501 2.9795,-6.98437 4.94446,-7.61499c0.29914,-0.09609 0.62712,-0.07969 0.90429,0.07368c0.37323,0.20654 0.60955,0.60674 0.73649,1.00225c0.32242,1.00635 0.03192,1.95703 -0.4419,2.85938c-0.11435,0.97119 -1.97594,4.68164 -2.63381,5.30566c-0.04495,0.04395 -0.13383,0.09521 -0.18068,0.12598c-0.00996,0.03809 -0.01903,0.07764 -0.02972,0.11572c-0.17995,0.65039 -0.62185,1.18359 -1.00781,1.72559c-2.03524,2.85352 -2.82649,3.76025 -3.13002,7.38135c-0.07438,0.8877 -0.13134,2.06396 0.30968,2.85791c0.12651,0.22705 0.28171,0.27686 0.50178,0.40283c0.42433,-0.03076 0.82435,-0.07471 1.1576,-0.37207l-0.24086,0.74121c0.08507,0.07617 0.12431,0.13623 0.23779,0.1626c-0.01801,0.02344 -0.03529,0.04688 -0.05403,0.07031c-0.36166,0.44385 -0.95202,0.64453 -1.50857,0.69873c-0.61716,0.05859 -1.22964,-0.04687 -1.70741,-0.46436c-1.11558,-0.97412 -1.08043,-3.07617 -1.20021,-4.45312c-0.61145,1.25684 -2.24155,2.63232 -3.38758,3.41895c-1.53902,1.05469 -3.51364,1.85156 -5.40085,1.46924c-0.9693,-0.19629 -1.85661,-0.72363 -2.40041,-1.56299c-0.67983,-1.04736 -0.72053,-2.36279 -0.44585,-3.54932c0.70296,-3.03809 3.00732,-4.95996 5.53175,-6.52295l0.11538,0.01025c1.04837,0.08496 2.52633,-0.38379 3.30587,0.53027c0.36825,0.43213 0.40939,1.02246 0.33296,1.56152c-0.20367,1.43555 -1.19903,2.69824 -2.34697,3.52734c-0.47689,0.34424 -0.94939,0.62256 -1.51969,0.77344l-0.28947,-0.05273c-0.74762,0.86133 -1.99907,0.49658 -2.6114,1.59521c-0.07189,0.66797 0.31788,1.37109 0.64322,1.93359zM57.69174,163.29785c0.07921,-0.00439 0.10454,-0.00146 0.18976,-0.03076c1.22817,-0.41602 2.53629,-1.70654 3.12051,-2.81836c0.32491,-0.61816 0.47777,-1.18213 0.26941,-1.86182c-0.32959,-0.36035 -0.50002,-0.29443 -0.97443,-0.33838l-0.0697,0.07764c-0.36415,0.40137 -0.81981,0.65479 -1.19742,1.03271c-0.86681,0.86426 -2.03861,2.79053 -2.21548,3.99609l0.1164,0.21973c0.32564,-0.00293 0.49373,-0.09814 0.76095,-0.27686z" fill="#f7d2c0"/><path d="M59.14365,157.40479l0.11538,0.01025c1.04837,0.08496 2.52633,-0.38379 3.30587,0.53027c0.36825,0.43213 0.40939,1.02246 0.33296,1.56152c-0.20367,1.43555 -1.19903,2.69824 -2.34697,3.52734c-0.47689,0.34424 -0.94939,0.62256 -1.51969,0.77344l-0.28947,-0.05273c-0.4807,-0.02783 -0.68422,-0.16846 -1.04998,-0.45703c0.07921,-0.00439 0.10454,-0.00146 0.18976,-0.03076c1.22817,-0.41602 2.53629,-1.70654 3.12051,-2.81836c0.32491,-0.61816 0.47777,-1.18213 0.26941,-1.86182c-0.32959,-0.36035 -0.50002,-0.29443 -0.97443,-0.33838l0.04232,-0.11426c0.29782,-0.23145 0.35463,-0.24463 0.73181,-0.28125c-0.61789,-0.06592 -1.29069,-0.09961 -1.84358,-0.3999c-0.02841,-0.01611 -0.05593,-0.03223 -0.0839,-0.04834z" fill="#e8cbc4"/><path d="M71.91837,155.28516l-0.12446,-0.49805c-0.45639,-0.13037 -0.45097,0.1626 -0.91308,0.1377c0.00249,0.13916 -0.01991,0.07031 0.10586,0.19336l-0.09019,-0.15674c0.26356,-1.1001 2.407,-5.50342 3.20733,-6.2124c0.21158,0.41748 0.17497,0.71045 0.55918,1.04736c0.0227,0.01904 0.04656,0.03809 0.06984,0.05713c-0.11435,0.97119 -1.97594,4.68164 -2.63381,5.30566c-0.04495,0.04395 -0.13383,0.09521 -0.18068,0.12598z" fill="#e8cbc4"/><path d="M86.11849,160.08252c0.04451,-0.01318 0.08961,-0.02344 0.13339,-0.03809c0.29723,-0.10254 0.54644,-0.47168 0.77237,-0.68262c1.25863,-1.17627 2.70848,-2.55322 4.54137,-1.81787c0.50764,0.20361 0.94734,0.49951 1.15628,1.02539c0.92669,2.33057 -3.35961,7.33154 -1.86817,9.19482c0.4479,0.11426 0.86827,-0.09668 1.24838,-0.3252c3.80195,-2.29395 4.2027,-7.44873 8.5278,-9.68555c0.83386,-0.43066 1.76758,-0.67236 2.69911,-0.44824c0.61423,0.14795 1.21763,0.46582 1.5276,1.03857c0.31466,0.58154 0.2148,1.2583 0.00249,1.85449c-0.60603,1.70361 -2.23013,2.98682 -3.83489,3.71924c-0.69022,0.31494 -2.27171,0.45557 -2.65284,0.7998c-0.20352,0.67969 -0.14862,1.7959 0.21392,2.41846c0.20382,0.35156 0.56782,0.50244 0.95173,0.58154c0.55479,0.11426 1.10328,0.19629 1.63258,-0.05127c0.0675,0.01758 0.09459,0.02637 0.16985,0.03369c0.78013,0.08203 2.17888,-0.9917 2.75226,-1.48682c0.23925,0.1377 0.48084,0.22266 0.61467,0.46875c-0.28303,0.63574 -1.49363,1.32275 -2.12573,1.55566c-0.18405,0.06885 -0.35448,0.06738 -0.54556,0.02637c-0.39929,0.51709 -1.35878,0.77783 -1.9878,0.89795c-0.99009,0.19043 -2.16643,-0.0835 -2.99283,-0.65625c-1.14193,-0.78955 -1.47079,-1.75928 -1.6891,-3.08496c-0.98658,1.50146 -2.96442,3.15967 -4.6831,3.64307c-0.63473,0.17871 -1.25511,0.22266 -1.84094,-0.13037c-3.28596,-1.979 1.9755,-7.69043 1.32906,-9.76318c-0.06823,-0.21973 -0.18141,-0.22852 -0.37323,-0.32959c-1.61955,0.09521 -1.91679,1.27148 -3.11494,1.94238c-0.0429,0.0249 -0.08697,0.04688 -0.13046,0.06885c-0.39987,1.29785 -1.42071,2.34961 -1.99688,3.56836c-0.57338,1.21436 -0.73078,2.60156 -1.38382,3.79541c-0.25243,0.46143 -0.5277,0.79834 -0.96711,1.08984c-0.35024,0.05127 -0.48992,0.08057 -0.79184,-0.15674c-0.32198,-0.25342 -0.64776,-0.83789 -0.65977,-1.23486c-0.02255,-0.74707 0.60281,-1.54834 0.34262,-2.26465l0.37864,-0.6665c-0.06516,-0.40723 -0.13149,-0.39258 -0.46957,-0.6416c0.29797,-0.18896 0.54761,-0.66357 0.74909,-0.95361c1.41237,-2.03174 2.0124,-4.05908 2.71156,-6.4043c0.43487,0.479 1.18952,0.71191 1.55601,1.21436c0.37542,0.51563 0.18141,1.29932 0.09781,1.88525zM99.12441,163.50879c0.87369,0.07471 1.64518,-0.50537 2.30377,-1.05322c0.89492,-0.74561 1.46581,-1.47363 1.91049,-2.55615c-0.01552,-0.44678 0.04261,-1.35352 -0.27615,-1.68164c-0.01772,-0.01758 -0.04027,-0.03076 -0.06047,-0.04687c-0.60852,0.375 -1.34926,0.6709 -1.89804,1.11475c-0.79389,0.6416 -2.11914,2.99121 -2.31783,3.9873c-0.01801,0.09082 -0.0224,0.18311 -0.0227,0.27539l0.12709,0.0791z" fill="#f7d2c0"/><path d="M101.1696,167.66602c0.0675,0.01758 0.09459,0.02637 0.16985,0.03369c0.78013,0.08203 2.17888,-0.9917 2.75226,-1.48682c0.23925,0.1377 0.48084,0.22266 0.61467,0.46875c-0.28303,0.63574 -1.49363,1.32275 -2.12573,1.55566c-0.18405,0.06885 -0.35448,0.06738 -0.54556,0.02637l-0.52638,0.16553l0.75465,-0.53613c-0.30324,0.08496 -0.5848,0.16406 -0.90122,0.18604z" fill="#f1dedd"/><path d="M69.69791,93.63164c0.43824,-1.50278 1.15906,-2.81704 1.41193,-4.41812c0.34643,-2.19404 -0.37645,-8.43501 1.133,-9.8877c0.46723,-0.17754 0.63239,-0.13594 1.10986,-0.05508c0.97018,0.81211 1.29655,1.59639 1.73361,2.74292l0.09752,0.19365c-0.47528,0.67983 -0.2413,0.96094 -0.24525,1.70625c-0.50164,-0.69082 -0.88335,-1.41226 -1.56055,-1.94956l-0.2782,-0.0041c-0.49944,0.61421 -0.37015,1.88027 -0.36825,2.64141c0.26853,1.37417 0.21099,2.78203 0.21685,4.17656c-0.03148,0.94336 -0.1082,1.76704 -0.43633,2.66353c-0.13251,0.36182 -0.72009,1.48594 -0.70296,1.80967c0.00381,0.07354 0.05989,0.13447 0.08976,0.20171l0.2435,-0.07075l0.31846,-0.68716c0.46005,-0.12612 0.53458,0.10005 0.94207,0.14209c0.85319,0.08804 1.7872,-0.48472 2.71595,-0.32754c-0.08785,0.22427 -0.12665,0.23701 -0.35551,0.32813c-0.45873,0.18252 -0.77368,0.08291 -1.21909,0.40093c-1.16302,0.98936 -3.27791,2.08726 -4.81883,2.21191c-1.66875,0.9249 -3.18171,2.07979 -4.88048,2.95356l-0.05227,0.03237c-1.1125,0.70063 -4.08468,3.29868 -4.68047,4.4458l-0.23647,0.09272l-0.16179,-0.15234c-0.01435,-0.66724 0.19708,-1.30928 0.36883,-1.94795c-0.41012,0.54302 -0.8201,1.21567 -1.32437,1.66802l-0.82888,1.17979c-0.33735,1.01865 -0.77515,2.03862 -1.2371,3.00732c-0.05901,1.34546 -0.14583,2.62529 -1.19157,3.61289c-0.66358,0.62651 -1.48719,0.92637 -2.33526,1.21304l0.66182,-0.74634l-0.54908,-0.32021c1.55659,-1.74302 2.23818,-3.14312 2.86471,-5.41025c0.41642,-0.89795 0.57075,-1.8397 1.2147,-2.62734l-0.06062,-0.10591c0.02108,-2.13999 -1.45205,-6.30674 -1.16624,-8.05693l0.23003,0.05024c0.81087,1.65176 0.80634,4.27603 1.27678,6.10928c0.07248,0.28242 0.07599,0.51768 0.33545,0.67046c0.90268,-0.60806 0.25814,-1.95469 0.83181,-2.73838c0.19269,0.09053 0.16311,0.86353 0.26224,1.13599c0.46137,-0.16304 0.49505,-0.49731 0.76153,-0.84404c0.29635,-0.38569 0.67207,-0.36855 1.11353,-0.44561c1.20958,-0.42246 2.32515,-1.27749 3.48041,-1.84702c1.49583,-0.73726 3.14349,-1.26123 4.57783,-2.10894c0.28288,-0.16729 0.50354,-0.37559 0.6974,-0.63896z" fill="#d6b0a6"/><path d="M59.75773,100.74639c1.63112,-1.81904 3.57456,-3.03164 5.7322,-4.13965c-0.23574,0.53525 -0.63678,1.20864 -0.64498,1.79722l-0.05227,0.03237c-1.1125,0.70063 -4.08468,3.29868 -4.68047,4.4458l-0.23647,0.09272l-0.16179,-0.15234c-0.01435,-0.66724 0.19708,-1.30928 0.36883,-1.94795c-0.41012,0.54302 -0.8201,1.21567 -1.32437,1.66802c0.18903,-0.66387 0.6154,-1.23252 0.99932,-1.79619z" fill="#957772"/><path d="M73.3527,79.27075c0.97018,0.81211 1.29655,1.59639 1.73361,2.74292l0.09752,0.19365c-0.47528,0.67983 -0.2413,0.96094 -0.24525,1.70625c-0.50164,-0.69082 -0.88335,-1.41226 -1.56055,-1.94956l-0.2782,-0.0041c-0.49944,0.61421 -0.37015,1.88027 -0.36825,2.64141c0.26853,1.37417 0.21099,2.78203 0.21685,4.17656c-0.07438,-0.22017 -0.16853,-0.43037 -0.26165,-0.64307l-0.54981,-0.03838c-0.01274,-1.52549 0.053,-3.05508 0.09239,-4.57998l0.1634,-2.49639c0.02723,-0.93384 0.36898,-1.12354 0.95993,-1.74932z" fill="#6d5950"/><path d="M73.3527,79.27075c0.97018,0.81211 1.29655,1.59639 1.73361,2.74292c-0.48816,-0.52925 -1.38675,-1.19561 -1.98355,-1.61821c-0.16838,-0.11938 -0.17907,-0.08599 -0.38757,-0.04966l-0.32242,0.67427c0.02723,-0.93384 0.36898,-1.12354 0.95993,-1.74932z" fill="#b09188"/><path d="M72.13697,88.09644l0.54981,0.03838c0.09312,0.2127 0.18727,0.4229 0.26165,0.64307c-0.03148,0.94336 -0.1082,1.76704 -0.43633,2.66353c-0.13251,0.36182 -0.72009,1.48594 -0.70296,1.80967c0.00381,0.07354 0.05989,0.13447 0.08976,0.20171l0.2435,-0.07075l0.31846,-0.68716c0.46005,-0.12612 0.53458,0.10005 0.94207,0.14209c0.85319,0.08804 1.7872,-0.48472 2.71595,-0.32754c-0.08785,0.22427 -0.12665,0.23701 -0.35551,0.32813c-0.45873,0.18252 -0.77368,0.08291 -1.21909,0.40093c-0.11216,-0.0356 -0.34423,-0.14531 -0.45156,-0.14326c-0.62434,0.0123 -1.69364,0.64497 -2.33569,0.83818c-0.51247,0.15425 -1.08761,0.19746 -1.61765,0.27158c0.46679,-0.41982 1.12187,-0.90352 1.33477,-1.5085c0.53736,-1.52666 0.58773,-2.99268 0.66284,-4.60005z" fill="#6d5950"/><path d="M65.48994,96.60674c1.29187,-0.65918 2.80307,-0.99199 4.2355,-1.15635c-1.66875,0.9249 -3.18171,2.07979 -4.88048,2.95356c0.0082,-0.58857 0.40924,-1.26196 0.64498,-1.79722z" fill="#6d5950"/><path d="M53.82742,110.80928c1.47167,-0.92358 2.20348,-2.55571 2.865,-4.07959c-0.05901,1.34546 -0.14583,2.62529 -1.19157,3.61289c-0.66358,0.62651 -1.48719,0.92637 -2.33526,1.21304z" fill="#6d5950"/><path d="M104.09171,166.21289c2.04622,-0.80566 4.40886,-5.73926 6.27923,-7.40771c1.31749,-1.1748 2.95988,-1.57471 4.69511,-1.44873c0.73649,0.0542 1.4828,0.25635 1.97213,0.84521c0.35932,0.43066 0.61511,1.11475 0.54995,1.68164c-0.04158,0.36328 -0.10162,0.49512 -0.37513,0.70898c-0.40163,-0.10254 -0.42667,-0.62256 -0.56826,-1.00488c-0.25814,-0.6958 -0.94997,-0.78223 -1.42862,-1.28467c-0.01903,-0.02051 -0.03719,-0.04102 -0.05564,-0.06152c-0.49095,0.41309 -1.24443,0.53613 -1.8285,0.79395c-1.44605,0.6416 -2.7956,3.1377 -3.34102,4.57471c-0.46225,1.21875 -0.88101,2.83447 -0.33076,4.06934c0.14232,0.11865 0.23208,0.2417 0.42374,0.25488c2.02777,0.13037 4.04369,-5.74951 5.21724,-6.94775c0.29797,-0.13477 0.62302,-0.15381 0.9283,-0.01465c2.00786,0.91992 -0.9857,5.06396 -0.39782,6.67822c0.10059,0.06299 0.21436,0.16846 0.33413,0.15967c1.10225,-0.09229 2.19367,-1.29932 2.86881,-2.11084l0.17951,0.25928c0.29313,-0.14062 0.37425,-0.22705 0.70003,-0.16406c-0.57572,1.31689 -1.97272,2.53418 -3.31232,3.04248c-0.64191,0.24316 -1.37284,0.34277 -2.01255,0.03662c-0.51452,-0.24463 -0.89887,-0.72803 -1.06916,-1.26709c-0.14203,-0.44971 -0.12226,-0.99756 -0.12534,-1.46631c-0.86695,1.2832 -2.11987,2.54736 -3.6974,2.86377c-0.60384,0.12012 -1.21983,0.0542 -1.73347,-0.30762c-0.72244,-0.50977 -1.04866,-1.42236 -1.17312,-2.26025c-0.08053,-0.54199 -0.13046,-1.08838 -0.14935,-1.63477c-0.39504,0.76611 -0.91996,1.38428 -1.63976,1.86328l-0.29533,0.01758c-0.13383,-0.24609 -0.37542,-0.33105 -0.61467,-0.46875z" fill="#f7d2c0"/><path d="M102.10947,113.64419c-0.35419,-1.06128 -1.12187,-2.60391 -0.90898,-3.72422c1.02641,0.80962 1.53243,3.17344 1.87096,4.38691c1.30607,4.68208 2.19865,11.29937 5.01094,15.17798c1.06272,1.46558 2.98214,2.38667 3.50017,3.14341c-0.57031,0.11821 -1.68896,-0.61055 -2.184,-0.93589c-0.49241,-0.32358 -0.94544,-0.71265 -1.39421,-1.09365c1.88384,3.49482 3.80077,6.72407 7.6159,8.34653c0.3662,0.05215 0.52082,0.05024 0.81497,0.29121c-0.84397,0.54976 -2.2187,-0.0917 -3.00806,0.66064c0.03207,0.32549 0.13339,0.55913 0.27088,0.854c-0.47718,-0.53599 -0.94997,-1.09263 -1.46669,-1.59082c-0.50398,-0.48618 -1.07502,-0.85664 -1.7935,-0.84741c-0.57938,-0.56353 -0.27791,-1.51582 -0.9958,-2.06133c-0.18727,-0.05449 -0.37118,-0.11279 -0.55361,-0.18223c-1.18908,-0.4519 -2.74611,-2.34331 -3.23808,-3.49204c-0.23632,-0.5521 -0.26077,-1.36509 -0.03558,-1.92437c0.26751,0.28726 0.2391,0.73755 0.31597,1.10947c0.12534,0.60747 0.58583,1.34722 1.11836,1.67534c0.21978,0.1355 0.21465,0.11367 0.46576,0.05347l0.02797,-0.51943c-0.49168,-0.83335 -0.89536,-1.73569 -1.32291,-2.60449l-0.10864,-0.03926c-1.57167,-2.36426 -2.75138,-5.48628 -3.22871,-8.28428c-0.43662,-1.09321 -0.53678,-2.45405 -0.68774,-3.61392c-0.39109,-1.598 -0.26619,-3.16978 -0.08536,-4.78564z" fill="url(#color-1)"/><path d="M109.44205,136.25156c-0.18727,-0.05449 -0.37118,-0.11279 -0.55361,-0.18223c-1.18908,-0.4519 -2.74611,-2.34331 -3.23808,-3.49204c-0.23632,-0.5521 -0.26077,-1.36509 -0.03558,-1.92437c0.26751,0.28726 0.2391,0.73755 0.31597,1.10947c0.12534,0.60747 0.58583,1.34722 1.11836,1.67534c0.21978,0.1355 0.21465,0.11367 0.46576,0.05347l0.02797,-0.51943c0.62419,0.8625 1.26653,1.68486 1.96642,2.4873c1.24706,1.36011 3.5583,3.68672 5.52692,3.73066c0.28801,0.00645 0.35712,-0.08101 0.58407,-0.24448c0.3662,0.05215 0.52082,0.05024 0.81497,0.29121c-0.84397,0.54976 -2.2187,-0.0917 -3.00806,0.66064c0.03207,0.32549 0.13339,0.55913 0.27088,0.854c-0.47718,-0.53599 -0.94997,-1.09263 -1.46669,-1.59082c-0.50398,-0.48618 -1.07502,-0.85664 -1.7935,-0.84741c-0.57938,-0.56353 -0.27791,-1.51582 -0.9958,-2.06133z" fill="#4f3430"/><path d="M102.88257,122.04375c0.01977,0.00996 0.03968,0.01963 0.0593,0.02988c0.1943,0.10034 0.28362,0.17168 0.40661,0.35171l0.64776,-0.12422c0.58905,2.63672 1.18717,5.36646 2.20157,7.87295c0.03895,0.09624 0.02518,0.0668 0.02211,0.19321l-0.10864,-0.03926c-1.57167,-2.36426 -2.75138,-5.48628 -3.22871,-8.28428z" fill="#1e1314"/><path d="M102.19484,118.42983c0.27424,-0.71089 -0.13368,-1.41724 0.12475,-2.0439c0.42799,0.46377 0.27512,1.16689 0.763,1.63447c0.02021,0.01934 0.04217,0.03647 0.06325,0.05479c0.34628,1.39614 0.47338,2.83813 0.85041,4.22593l-0.64776,0.12422c-0.12299,-0.18003 -0.21231,-0.25137 -0.40661,-0.35171c-0.01962,-0.01025 -0.03953,-0.01992 -0.0593,-0.02988c-0.43662,-1.09321 -0.53678,-2.45405 -0.68774,-3.61392z" fill="#362525"/><path d="M102.10947,113.64419c0.57441,1.29668 0.92904,3.01831 1.03636,4.43101c-0.02108,-0.01831 -0.04305,-0.03545 -0.06325,-0.05479c-0.48787,-0.46758 -0.33501,-1.1707 -0.763,-1.63447c-0.25843,0.62666 0.14949,1.33301 -0.12475,2.0439c-0.39109,-1.598 -0.26619,-3.16978 -0.08536,-4.78564z" fill="#4f3430"/><path d="M90.92678,76.36743c0.47089,-0.34277 1.20372,-0.66855 1.79687,-0.60732c0.19225,0.01992 0.34614,0.10854 0.49988,0.21855c1.30739,1.98442 2.01518,7.51069 2.50671,10.0355c0.41056,1.67227 0.6403,3.40415 0.96169,5.09648c0.25038,1.31792 0.6198,2.66382 0.74967,3.998c-0.07467,0.11338 -0.19371,0.18867 -0.29958,0.27261c-0.35932,-0.13711 -0.45244,-0.41235 -0.65757,-0.72759c-0.05008,-0.40181 -0.08492,-0.7875 -0.25872,-1.15913c-0.4416,-0.79512 -0.43018,-2.06558 -0.58963,-2.96982c-0.10894,-0.61758 -0.20016,-1.36787 -0.75099,-1.75459c-0.41671,0.00425 -0.52243,0.13374 -0.8488,0.37236c-0.11025,0.55811 -0.16267,1.43218 -0.41627,1.92187l-0.16326,-0.25679l-0.13866,0.0854l-0.25814,1.10537c-0.14671,-0.48398 0.14671,-0.91494 -0.10674,-1.38369c-0.01142,-0.02124 -0.02475,-0.04131 -0.03704,-0.06182c0.08756,-0.53701 0.20836,-1.06772 0.28127,-1.60723c0.35932,-2.65649 0.12329,-8.07129 -0.85539,-10.56313c-0.16355,-0.41646 -0.45595,-0.78706 -0.72624,-1.13994c-3.80634,2.77852 -7.18367,6.69961 -8.0862,11.43882c-0.18317,-0.46582 -0.26268,-0.99565 -0.36898,-1.48521c0.86417,-2.32134 2.39587,-4.74785 3.98936,-6.65361c0.34731,-0.41528 0.77032,-0.74194 1.12377,-1.14785l-0.09942,-0.10327l-0.78144,0.33281c0.36576,-0.45835 0.82537,-0.84595 1.25599,-1.24277l-0.28083,-0.75981c0.79199,-0.54126 1.679,-0.88389 2.55869,-1.2542z" fill="#957772"/><path d="M94.7031,83.81353l0.7668,4.27266c0.07511,-0.68188 -0.13983,-1.4729 0.26034,-2.07202c0.41056,1.67227 0.6403,3.40415 0.96169,5.09648c0.25038,1.31792 0.6198,2.66382 0.74967,3.998c-0.07467,0.11338 -0.19371,0.18867 -0.29958,0.27261c-0.35932,-0.13711 -0.45244,-0.41235 -0.65757,-0.72759c-0.05008,-0.40181 -0.08492,-0.7875 -0.25872,-1.15913c-0.4416,-0.79512 -0.43018,-2.06558 -0.58963,-2.96982c-0.10894,-0.61758 -0.20016,-1.36787 -0.75099,-1.75459c-0.41671,0.00425 -0.52243,0.13374 -0.8488,0.37236c-0.18171,-1.54922 -0.07409,-3.3041 -0.03851,-4.87031c0.11904,0.00835 0.0817,0.01362 0.18625,-0.00513c0.32154,-0.05742 0.33589,-0.18794 0.51906,-0.45352z" fill="#362525"/><path d="M95.73024,86.01416c0.41056,1.67227 0.6403,3.40415 0.96169,5.09648c0.25038,1.31792 0.6198,2.66382 0.74967,3.998c-0.07467,0.11338 -0.19371,0.18867 -0.29958,0.27261c-0.35932,-0.13711 -0.45244,-0.41235 -0.65757,-0.72759c-0.05008,-0.40181 -0.08492,-0.7875 -0.25872,-1.15913c-0.05359,-1.78433 -0.50793,-3.63442 -0.75582,-5.40835c0.07511,-0.68188 -0.13983,-1.4729 0.26034,-2.07202z" fill="#e8cbc4"/><path d="M90.92678,76.36743c0.47089,-0.34277 1.20372,-0.66855 1.79687,-0.60732c0.19225,0.01992 0.34614,0.10854 0.49988,0.21855c1.30739,1.98442 2.01518,7.51069 2.50671,10.0355c-0.40017,0.59912 -0.18522,1.39014 -0.26034,2.07202l-0.7668,-4.27266c-0.38684,-1.88188 -0.82625,-3.75249 -1.31807,-5.60962c-0.00659,-0.1144 -0.01816,-0.22456 -0.0388,-0.33765c-0.0675,-0.37031 -0.34789,-0.89985 -0.67192,-1.09541c-0.53487,-0.323 -1.03314,-0.12319 -1.59203,0.02842z" fill="#d6b0a6"/><path d="M93.38503,78.20391c0.49183,1.85713 0.93123,3.72773 1.31807,5.60962c-0.18317,0.26558 -0.19752,0.39609 -0.51906,0.45352c-0.10454,0.01875 -0.06721,0.01348 -0.18625,0.00513c-0.18566,-1.61704 -1.09874,-4.62202 -0.61277,-6.06826z" fill="#1e1314"/><path d="M88.36809,77.62163c0.79199,-0.54126 1.679,-0.88389 2.55869,-1.2542l0.1555,0.43184c-0.78979,0.52632 -1.7077,0.98013 -2.43336,1.58218z" fill="#f7d2c0"/><path d="M72.06596,165.375c0.01567,-0.01318 0.03148,-0.02637 0.047,-0.03955c1.33945,-1.16455 2.43438,-3.11865 3.04466,-4.76514c0.32593,-0.87891 0.58802,-1.84863 1.098,-2.64258c0.22007,-0.34277 0.32344,-0.4043 0.70853,-0.49951c0.50471,0.14795 0.83533,0.50391 1.08205,0.95654c0.30909,0.56836 0.22358,0.94043 0.03382,1.53223c-0.67251,2.09912 -2.52546,5.39209 -2.06072,7.57764c0.14949,0.20361 0.20587,0.37646 0.48714,0.39551c0.33911,0.02197 0.86036,-0.21973 1.11689,-0.43066c0.13895,0.00439 0.27908,-0.00293 0.41173,-0.0498c1.01747,-0.36182 2.4846,-2.13574 2.96896,-3.06885c0.33808,0.24902 0.40441,0.23438 0.46957,0.6416l-0.37864,0.6665c-0.50574,0.89648 -1.67783,1.84863 -2.51901,2.44336l-0.39372,0.02637c-0.05359,0.08936 -0.10938,0.16699 -0.17936,0.24463c-0.47967,0.5332 -1.64796,0.78223 -2.33745,0.78369c-0.48568,0 -0.92215,-0.17578 -1.25438,-0.53174c-1.04676,-1.125 -0.79243,-3.17139 -0.72083,-4.56592c-0.19005,0.48926 -0.41759,1.35498 -0.91542,1.59814l-0.04378,-0.14209c-0.22066,-0.04834 -0.44248,-0.09082 -0.66504,-0.13037z" fill="#f7d2c0"/><path d="M81.00403,164.34082c0.33808,0.24902 0.40441,0.23438 0.46957,0.6416l-0.37864,0.6665c-0.50574,0.89648 -1.67783,1.84863 -2.51901,2.44336l-0.39372,0.02637l-0.37235,0.0791c0.47792,-0.30029 0.94163,-0.59766 1.3806,-0.95215l-0.09722,-0.09375c-0.44439,0.28564 -0.88233,0.58154 -1.31368,0.8877l-0.20997,-0.06738l0.05374,-0.5127c0.13895,0.00439 0.27908,-0.00293 0.41173,-0.0498c1.01747,-0.36182 2.4846,-2.13574 2.96896,-3.06885z" fill="#f1dedd"/><path d="M68.54675,131.32969l0.1268,-0.16479c-0.38377,-0.28799 -0.7895,-0.6457 -1.24355,-0.8083c-0.02167,-0.00762 -0.04363,-0.01421 -0.06545,-0.02124c0.45742,-0.49116 1.32276,0.39551 1.943,0.34658l0.09517,-0.38188c1.56479,0.78647 2.6278,1.79854 3.54293,3.27422c0.43048,0.3936 0.75421,0.629 1.3169,0.79438c0.15974,1.16162 0.11904,4.95469 0.49256,5.68623c0.53575,-0.69023 0.49021,-2.01431 0.66973,-2.87051c0.12416,1.70889 0.22724,3.16816 -0.9838,4.54336c-0.50793,0.57656 -1.15833,0.90981 -1.63302,1.52886c-0.85187,1.21274 -1.74108,1.95044 -2.95124,2.78979c1.19098,-2.00903 2.89839,-5.98989 2.52355,-8.30493c-0.41627,-2.57124 -1.71209,-4.87734 -3.83357,-6.41177z" fill="#d6b0a6"/><path d="M72.94565,133.57427c0.43048,0.3936 0.75421,0.629 1.3169,0.79438c0.15974,1.16162 0.11904,4.95469 0.49256,5.68623c0.53575,-0.69023 0.49021,-2.01431 0.66973,-2.87051c0.12416,1.70889 0.22724,3.16816 -0.9838,4.54336c-0.50793,0.57656 -1.15833,0.90981 -1.63302,1.52886c0.2517,-0.69258 0.6545,-1.34399 0.92977,-2.03335c1.22876,-3.07734 0.39958,-4.85596 -0.79213,-7.64897z" fill="#4f3430"/><path d="M51.85309,123.20728c0.65831,0.35347 1.33272,0.54946 2.04564,0.75557c-0.1902,0.36973 -0.24438,0.48706 -0.61013,0.71426c-0.19767,0.04585 -0.34863,0.03296 -0.46723,0.20977c-0.31144,0.46421 -0.10894,1.35073 -0.04422,1.88496c1.00327,1.4168 1.69789,2.24575 3.48421,2.56289c3.50457,0.62212 7.01821,-0.72144 10.47636,-0.30703c0.19635,0.42188 0.38875,0.64497 0.84118,0.8105c0.34892,0.12773 0.72712,0.19951 1.09844,0.18486l0.72537,0.277l-0.09517,0.38188c-0.62024,0.04893 -1.48558,-0.83774 -1.943,-0.34658c0.02182,0.00703 0.04378,0.01362 0.06545,0.02124c0.45405,0.1626 0.85978,0.52031 1.24355,0.8083l-0.1268,0.16479c-0.41598,-0.23818 -0.84265,-0.48442 -1.29084,-0.65713c-1.40915,-0.54331 -3.25155,-0.70796 -4.6424,-0.09214c-0.25931,0.11484 -0.72185,-0.1374 -1.12085,-0.01436c-0.02592,0.07529 -0.07438,0.14634 -0.0779,0.22588c-0.01391,0.30762 0.95158,1.76221 1.1434,2.17896c0.29445,0.63955 0.493,1.29858 0.68408,1.97461c-0.77251,-1.2019 -1.33521,-2.7561 -2.26219,-3.82822c-0.19225,-0.22236 -0.39416,-0.32358 -0.68364,-0.34907c-0.17365,0.19482 0.00454,0.65024 -0.15784,0.94907c-1.35424,-0.97236 -2.57495,-1.00239 -4.16756,-1.21465c-0.27981,1.27427 -0.44629,2.50679 -0.55845,3.80347c-0.66577,-0.97969 0.3785,-2.74922 -0.09327,-3.84229c-0.39138,0.07017 -0.45258,0.39521 -0.83562,0.44224c-0.21904,-1.42471 -1.81019,-2.00713 -2.65518,-3.87393c-0.48216,0.92666 -1.1311,2.5147 -1.99483,3.14224c-0.03075,-1.0604 1.27942,-2.50093 1.88736,-3.34263l0.02313,-2.12007l0.00981,-0.11514c-0.10118,-0.54653 -0.17614,-0.89531 0.09913,-1.38926z" fill="#f7d2c0"/><path d="M51.85309,123.20728c0.65831,0.35347 1.33272,0.54946 2.04564,0.75557c-0.1902,0.36973 -0.24438,0.48706 -0.61013,0.71426c-0.19767,0.04585 -0.34863,0.03296 -0.46723,0.20977c-0.31144,0.46421 -0.10894,1.35073 -0.04422,1.88496c-0.1716,0.22646 -0.19386,0.32534 -0.47557,0.39712c-0.58158,-0.64248 -0.29884,-1.57573 -0.52814,-2.36323c-0.00922,-0.03149 -0.01947,-0.0627 -0.02928,-0.09404l0.00981,-0.11514c-0.10118,-0.54653 -0.17614,-0.89531 0.09913,-1.38926z" fill="#f1dedd"/><path d="M96.22573,93.49453c0.1738,0.37163 0.20865,0.75732 0.25872,1.15913c0.20513,0.31523 0.29826,0.59048 0.65757,0.72759c0.10586,-0.08394 0.2249,-0.15923 0.29958,-0.27261c0.48582,2.204 0.22885,4.42661 0.70384,6.60542c0.0899,0.3063 0.19386,0.58594 0.37879,0.84932c0.54703,0.77886 3.40339,6.24683 3.32549,6.89355c-0.04466,-0.01567 -0.09005,-0.02944 -0.13383,-0.04702c-1.42613,-0.57437 -2.85095,-4.65571 -3.38304,-6.03706c-1.22554,1.73013 -1.23476,3.0583 -1.56904,5.0792c-0.24891,1.50454 -0.80136,3.83979 -2.09644,4.76895l-0.16267,-0.05684c0.10074,-0.70444 0.74176,-1.35088 1.05218,-1.99087c0.62155,-1.28188 0.89946,-3.12993 0.95905,-4.54937c0.05169,-1.23237 0.03617,-2.49741 -0.07526,-3.72642c-0.14862,-1.63755 -1.44019,-8.50884 -0.65552,-9.56133l0.33794,0.75132c0.05813,-0.15732 0.09429,-0.27773 0.09957,-0.44678c0.00161,-0.04878 0.00205,-0.09741 0.00307,-0.14619z" fill="#362525"/><path d="M96.48445,94.65366c0.20513,0.31523 0.29826,0.59048 0.65757,0.72759c0.10586,-0.08394 0.2249,-0.15923 0.29958,-0.27261c0.48582,2.204 0.22885,4.42661 0.70384,6.60542c-0.73386,-1.16294 -1.36551,-5.55352 -1.66099,-7.0604z" fill="#b9aeb2"/><path d="M110.43785,138.31289c0.71848,-0.00923 1.28952,0.36123 1.7935,0.84741c0.51672,0.49819 0.98951,1.05483 1.46669,1.59082c0.69315,1.12061 1.40036,2.3918 1.20196,3.76362l-0.12006,0.17827c-0.16999,-0.22793 -0.28611,-0.43945 -0.39314,-0.70283c-0.32549,1.96626 1.05979,5.34331 -0.18215,7.20513c-0.20045,0.30176 -0.33808,0.35156 -0.66402,0.43359c-0.38011,-0.79248 0.20587,-2.76709 -0.27878,-3.29736c-0.31436,0.49365 -0.42901,2.17383 -0.67558,2.87402c-0.27878,0.79248 -0.68085,1.37988 -1.43536,1.72852c0.81629,-1.53809 0.85495,-2.85498 1.20065,-4.50879c0.15564,-0.74561 0.72039,-1.41504 0.81205,-2.16855c0.28903,-2.37788 -1.70828,-4.54219 -1.92001,-6.8228c-0.00205,-0.02124 -0.00351,-0.04248 -0.00527,-0.06357c-0.3662,-0.25781 -0.57353,-0.6813 -0.80048,-1.05747z" fill="url(#color-2)"/><path d="M110.43785,138.31289c0.71848,-0.00923 1.28952,0.36123 1.7935,0.84741c0.51672,0.49819 0.98951,1.05483 1.46669,1.59082c0.69315,1.12061 1.40036,2.3918 1.20196,3.76362l-0.12006,0.17827c-0.16999,-0.22793 -0.28611,-0.43945 -0.39314,-0.70283l0.02841,-0.18062c-0.37352,-1.32451 -2.07155,-3.65522 -3.17688,-4.43921c-0.3662,-0.25781 -0.57353,-0.6813 -0.80048,-1.05747z" fill="#d6b0a6"/><path d="M92.91619,90.55283c0.0123,0.02051 0.02562,0.04058 0.03704,0.06182c0.25345,0.46875 -0.03997,0.89971 0.10674,1.38369l0.25814,-1.10537l0.13866,-0.0854l0.16326,0.25679c-0.38157,3.30615 -0.45346,8.50532 -2.77042,11.07217c-0.11655,-0.34614 1.01396,-3.41455 1.14837,-4.13599l-0.41452,0.10488c-1.35351,2.35649 -3.69081,5.925 -6.41833,6.71177c-0.13734,0.0397 -0.27952,0.04893 -0.42184,0.04746c0.19562,-0.14194 0.38757,-0.28403 0.59476,-0.40869c1.78589,-1.07432 3.37381,-3.05581 4.20387,-4.93535c-0.01947,-0.17534 -0.02387,-0.32959 -0.12563,-0.48032c-1.08863,1.43716 -2.53014,1.99497 -4.17664,2.54224c0.52111,-0.41455 1.12553,-0.69258 1.67973,-1.05791c3.14291,-2.0729 5.2496,-6.39741 5.99678,-9.97178z" fill="#d6b0a6"/><path d="M89.41631,99.04028l-0.01157,-0.10137c0.45537,-1.32129 1.88033,-1.7625 2.54903,-2.71392c0.2637,-0.37529 0.2514,-0.95918 0.65538,-1.19575l0.11875,0.22983c-0.02035,0.71294 -0.2268,2.23535 -0.7299,2.74146l-0.41452,0.10488c-1.35351,2.35649 -3.69081,5.925 -6.41833,6.71177c-0.13734,0.0397 -0.27952,0.04893 -0.42184,0.04746c0.19562,-0.14194 0.38757,-0.28403 0.59476,-0.40869c1.78589,-1.07432 3.37381,-3.05581 4.20387,-4.93535c-0.01947,-0.17534 -0.02387,-0.32959 -0.12563,-0.48032z" fill="#b09188"/><path d="M62.14775,109.76689c-0.07746,-1.05996 0.00264,-2.13398 0.32857,-3.15264c0.13602,-0.4248 0.41949,-0.88594 0.84162,-1.06904c1.12553,-0.48838 3.25785,0.79629 4.30797,1.27881c-0.30704,0.99917 -1.64606,1.3626 -2.02074,2.39883c-1.444,1.49941 -3.58393,0.9167 -5.28489,1.69937c-1.06433,0.4897 -2.01108,1.4625 -3.00337,2.11582c0.24218,-0.5124 0.48216,-1.0563 0.84367,-1.49678c0.99053,-1.20674 2.49881,-1.62349 3.98717,-1.77437z" fill="#f7d2c0"/><path d="M56.16429,102.9271c-0.15564,-0.7207 -0.33691,-1.38047 -0.66607,-2.04404c-0.5687,-1.14624 -4.36186,-6.78091 -4.35527,-7.27207l0.17263,-0.03296c1.06521,0.79438 3.88365,5.77251 4.69979,7.25127c0.25316,0.45864 0.46518,1.30269 0.83167,1.6251l0.4501,-0.10884l0.06062,0.10591c-0.64396,0.78765 -0.79828,1.72939 -1.2147,2.62734c-0.92728,-1.39204 -4.45776,-3.01655 -6.11304,-3.35654c-0.94456,-0.19409 -1.91723,-0.15513 -2.85944,-0.37163l-0.02299,-0.08379c2.11314,-0.93193 5.60526,0.82266 7.41955,1.95366c0.46693,0.29106 1.05393,0.91978 1.58002,1.02554l-0.03895,-0.32827c-0.61189,-0.47886 -0.87574,-1.05366 -1.36727,-1.63374c-0.61526,-0.72612 -1.32979,-1.3916 -2.04066,-2.02251c-0.769,-0.68262 -1.56626,-1.35967 -2.39822,-1.96421c-0.75904,-0.55137 -1.64884,-0.99331 -2.28738,-1.68706l0.14525,-0.12202c1.82893,0.29517 6.57368,5.06836 8.00435,6.43887z" fill="#6d5950"/><path d="M49.25282,178.29199c0.62814,0.07031 1.31163,0.08203 1.82132,0.49365c0.46371,0.375 0.86944,0.9668 0.91293,1.57471c0.04129,0.57568 -0.17805,1.35352 -0.56035,1.79297c-0.2495,0.28564 -0.32725,0.271 -0.6911,0.29883c-0.35478,0.27246 -0.70121,0.40869 -1.14911,0.3999c-0.4192,-0.00879 -0.74528,-0.17139 -1.02597,-0.479c-0.46093,-0.50537 -0.5583,-1.31982 -0.51979,-1.97168c0.06047,-1.02393 0.47016,-1.44434 1.21207,-2.10937zM50.3148,181.95117c0.35448,-0.08203 0.58422,-0.17578 0.77193,-0.51562c0.20235,-0.36768 0.20865,-0.84668 0.0716,-1.23779c-0.15374,-0.43799 -0.35697,-0.70459 -0.72815,-0.97998c-0.33779,-0.09082 -0.64893,-0.14062 -0.99815,-0.1626c-0.54556,0.75586 -0.69345,1.27002 -0.52404,2.20605c0.06896,0.38086 0.19723,0.7207 0.50574,0.96973c0.3782,0.04248 0.47513,0.05859 0.79125,-0.18457c0.03836,-0.03076 0.07321,-0.06445 0.10982,-0.09521z" fill="#f1dedd"/><path d="M80.01247,87.87905c2.88375,-3.75659 4.27752,-7.30122 8.35561,-10.25742l0.28083,0.75981c-0.43062,0.39683 -0.89023,0.78442 -1.25599,1.24277c-2.26278,2.273 -3.40032,4.00474 -5.13759,6.63999c-0.56386,0.85518 -1.08585,1.83765 -1.73625,2.62427c-0.30397,0.09478 -0.4807,0.13374 -0.78774,0.0334c0.14701,-0.33779 0.20982,-0.68408 0.28113,-1.04282z" fill="#e8cbc4"/><path d="M62.5526,150.32959c0.49358,0.2373 1.08175,0.44238 1.39407,0.92139c0.17336,0.2666 0.20045,0.55957 0.12856,0.86426c-0.20177,0.85693 -1.08658,1.52051 -1.79438,1.95264c-0.66109,0.4043 -1.98648,1.14551 -2.74977,0.95947c-0.14247,0.12158 -0.29621,0.25342 -0.46357,0.33984c-0.30748,0.15674 -0.63136,0.18457 -0.95466,0.06445c-0.00659,-0.09229 -0.03836,-0.18604 -0.01991,-0.27686c0.01142,-0.05566 0.5684,-0.50684 0.64264,-0.57422c1.45395,-1.30957 2.64874,-2.68506 3.81703,-4.25098z" fill="#f7d2c0"/><path d="M48.77446,113.63057l0.24921,0.38262l0.20733,0.02988c0.02372,0.01582 0.04729,0.03223 0.07145,0.04775c0.85378,0.54448 2.39207,0.64043 2.87672,1.59917c-0.04964,0.38013 -0.18976,0.52969 -0.49505,0.76626c-0.4173,0.32329 -1.54137,0.84375 -1.73039,1.29463l0.3823,0.29121l-0.0489,0.1355c-0.42491,0.28608 -0.63195,0.48721 -1.18161,0.40005c-0.41086,-0.82397 -0.87018,-1.65498 -1.02011,-2.57329c-0.15169,-0.9293 0.15711,-1.6333 0.68905,-2.37378z" fill="#f7d2c0"/><path d="M92.88705,178.05615c0.78423,0.58594 1.89248,0.38525 2.71946,1.05029c0.26502,0.2124 0.34614,0.54053 0.37396,0.86279c-0.15272,0.26074 -0.25565,0.44385 -0.51569,0.60645c-0.40148,1.02246 0.45434,1.6084 0.21626,2.18848c-0.66035,-0.15088 -1.27386,-1.24219 -1.65674,-1.79004c-0.48172,0.5127 -0.21202,1.21729 -0.58143,1.73877c-0.10703,0.15088 -0.12944,0.13184 -0.31026,0.16113c-0.58963,-0.8877 -0.25389,-3.71045 -0.24555,-4.81787zM95.03445,180.1333c0.1798,-0.30469 0.13427,-0.31201 0.05154,-0.64014c-0.28523,-0.25488 -0.46767,-0.33838 -0.84675,-0.39111c-0.38406,0.13623 -0.39929,0.1377 -0.60633,0.48779l-0.00849,0.71484c0.14305,0.0249 0.25477,0.04834 0.39973,0.03955c0.12768,0.0498 0.23896,0.09375 0.37645,0.10693c0.32125,0.02783 0.39211,-0.11572 0.63385,-0.31787z" fill="#e8cbc4"/><path d="M95.03445,180.1333c0.16077,0.12744 0.35492,0.24463 0.43033,0.44238c-0.40148,1.02246 0.45434,1.6084 0.21626,2.18848c-0.66035,-0.15088 -1.27386,-1.24219 -1.65674,-1.79004c-0.0921,-0.04395 -0.18786,-0.14355 -0.26429,-0.20654l0.26414,-0.42334c0.12768,0.0498 0.23896,0.09375 0.37645,0.10693c0.32125,0.02783 0.39211,-0.11572 0.63385,-0.31787z" fill="#f1dedd"/><path d="M66.73773,129.02769c4.30534,-0.07705 8.22837,0.06621 11.51068,3.22061c0.72141,0.69346 1.21163,1.3979 1.7241,2.25278c-3.15858,-2.91797 -6.12373,-4.89653 -10.61737,-4.77187c-0.27,0.00747 -0.48392,-0.00103 -0.65918,0.23584c-0.01201,0.01641 -0.01245,0.03867 -0.0186,0.05801c-0.37132,0.01465 -0.74952,-0.05713 -1.09844,-0.18486c-0.45244,-0.16553 -0.64483,-0.38862 -0.84118,-0.8105z" fill="#b09188"/><path d="M49.47699,121.44902c0.20997,-0.22485 0.25697,-0.2959 0.55947,-0.38848l0.50383,0.29897c0.41203,0.64424 0.83445,1.2498 1.3128,1.84775c-0.27527,0.49395 -0.2003,0.84272 -0.09913,1.38926c-0.39211,-0.49336 -0.89931,-0.91553 -1.35849,-1.34648c-1.63566,1.03198 -3.29606,2.04653 -4.89702,3.13198c-1.83084,1.24116 -3.62258,2.8103 -5.70072,3.61611c0.77002,-1.20322 8.43117,-5.94375 10.30857,-7.26489z" fill="#f7d2c0"/><path d="M62.72406,104.1769c2.04432,-0.19966 3.36283,0.8001 5.01928,1.78154c0.53546,0.31714 1.16638,0.58198 1.65997,0.95596c0.09678,0.07339 0.1839,0.16597 0.26517,0.25605l-0.1697,0.21299c-0.04114,-0.00044 -0.08214,-0.00161 -0.12329,-0.00117c-1.1248,0.01274 -2.80951,1.2876 -3.77032,1.84058c0.37469,-1.03623 1.7137,-1.39966 2.02074,-2.39883c-0.06926,-0.11147 -0.1451,-0.21577 -0.23164,-0.31479c-0.7507,-0.8606 -2.73147,-1.61323 -3.84573,-1.67607c-1.16097,0.29414 -2.44888,1.60649 -3.00703,1.58965c0.00952,-0.13975 0.03412,-0.26455 0.08507,-0.39639c0.40207,-1.04121 1.16741,-1.3894 2.09747,-1.84951z" fill="#e8cbc4"/><path d="M88.63223,178.29199c0.4968,0.20215 1.12216,0.10547 1.61296,0.31934c0.22314,0.09814 0.21787,0.16846 0.29035,0.38232c-0.39358,0.43945 -1.34048,-0.00146 -1.95544,0.3501c-0.2006,0.11426 -0.35668,0.38818 -0.41276,0.60791c-0.13866,0.54492 -0.0981,1.59961 0.24979,2.06689c0.25697,0.34717 0.40822,0.3457 0.80678,0.3999c0.18551,-0.06738 0.40924,-0.13477 0.55405,-0.27539c0.25858,-0.25049 0.28362,-0.35596 0.29767,-0.69141c-0.40017,-0.24463 -0.82259,-0.06006 -1.127,-0.29443l0.14583,-0.46875c0.43545,0.13916 0.8816,-0.10693 1.35907,0.04541c0.33296,0.29004 0.36166,0.32959 0.47221,0.75439c-0.07702,0.41016 -0.23588,0.7002 -0.55684,0.96533c-0.38918,0.3208 -0.93811,0.47168 -1.43711,0.42041c-0.63576,-0.06445 -1.17107,-0.44824 -1.55791,-0.94043c-0.3129,-0.39844 -0.47455,-0.86279 -0.40324,-1.36963c0.14818,-1.05469 0.87735,-1.66406 1.66158,-2.27197z" fill="#f1dedd"/><path d="M108.41813,178.17041c0.76226,0.42188 1.8446,0.21826 2.70951,0.35303l0.0287,0.22852c-0.4583,0.53174 -1.28689,0.38379 -1.72952,0.94482c-0.01596,0.02051 -0.02987,0.04248 -0.0448,0.06299c0.45258,0.58301 1.11367,0.30762 1.55923,0.76318c-0.42638,0.43506 -1.07341,0.53906 -1.55806,0.90381c0.05403,0.3252 0.01435,0.48193 0.30001,0.67529c0.41349,0.27832 1.02172,0.07324 1.31866,0.49658c-0.46122,0.30322 -1.50286,0.21826 -2.03846,0.13623l-0.33677,-0.25195c-0.00893,-0.00879 -0.01889,-0.01611 -0.0265,-0.02637c-0.34013,-0.43359 -0.18288,-1.74463 -0.18229,-2.31152z" fill="#e8cbc4"/><path d="M108.41813,178.17041c0.76226,0.42188 1.8446,0.21826 2.70951,0.35303l0.0287,0.22852c-0.4583,0.53174 -1.28689,0.38379 -1.72952,0.94482c-0.01596,0.02051 -0.02987,0.04248 -0.0448,0.06299c-0.01171,-0.01758 -0.02372,-0.03516 -0.03499,-0.05273c-0.15843,-0.24756 -0.22446,-0.49658 -0.29811,-0.77783l-0.21831,-0.1377c-0.23193,0.40869 -0.15242,1.02832 -0.41276,1.35352z" fill="#e8cbc4"/><path d="M108.62664,182.48291c-0.0101,-0.44238 -0.06809,-0.92725 0.11143,-1.3418l0.26634,-0.09082c0.14627,0.11133 0.25843,0.23877 0.37879,0.37646c0.05403,0.3252 0.01435,0.48193 0.30001,0.67529c0.41349,0.27832 1.02172,0.07324 1.31866,0.49658c-0.46122,0.30322 -1.50286,0.21826 -2.03846,0.13623z" fill="#f1dedd"/><path d="M53.89873,123.96284c3.95906,1.55522 6.41423,0.97061 10.28162,-0.36563c-1.85309,1.58979 -3.84953,2.32646 -6.30236,2.14687c-1.4888,-0.10913 -3.18259,-0.56235 -4.58939,-1.06699c0.36576,-0.2272 0.41993,-0.34453 0.61013,-0.71426z" fill="#e8cbc4"/><path d="M78.67053,151.77979c0.46825,0.14795 0.97047,0.09082 1.39817,0.39111c0.34248,0.24023 0.65699,0.7002 0.70633,1.12061c0.0369,0.31348 -0.07497,0.66357 -0.27805,0.90234c-0.26341,0.31055 -0.53575,0.39111 -0.92084,0.41895c-0.33062,0.22266 -0.55566,0.30469 -0.94617,0.27246c-0.28479,-0.02344 -0.51672,-0.15674 -0.6933,-0.38232c-0.29782,-0.37939 -0.35946,-0.93896 -0.28698,-1.40479c0.10352,-0.66504 0.50164,-0.94922 1.02084,-1.31836z" fill="#e8cbc4"/><path d="M99.60525,178.44287l0.44087,0.15234c0.06252,0.10986 0.12021,0.22266 0.17322,0.33691c0.32461,0.72363 1.43887,3.25342 1.18703,3.90234c-0.54673,-0.20068 -0.90824,-0.91699 -1.38089,-1.29639l-0.09283,-0.07324c-0.97721,0.31934 -1.27239,1.16309 -2.00874,1.25098c-0.00703,-0.03809 -0.01537,-0.07617 -0.02094,-0.11426c-0.1085,-0.75439 1.21133,-3.4585 1.70228,-4.15869z" fill="#d6b0a6"/><path d="M39.4412,178.29785c0.51818,0.19922 1.26639,0.21533 1.68661,0.55371c-0.72478,0.22119 -1.89365,0.37061 -2.33936,1.03711c-0.16297,0.24463 -0.16297,0.60059 -0.10601,0.8833c0.10908,0.53906 0.43662,1.30664 0.95554,1.57471c0.3312,0.17139 0.49885,0.06738 0.81146,-0.06006c0.5542,-0.73975 -0.5072,-1.03271 -0.56723,-1.81934c-0.00234,-0.0293 -0.0019,-0.05859 -0.00278,-0.08789c0.42696,0.21387 1.22685,0.40137 1.51926,0.76758c0.1637,0.20508 0.1943,0.33398 0.16253,0.59326c-0.03909,0.3208 -0.28113,0.67383 -0.53517,0.86572c-0.3498,0.26514 -0.82069,0.34277 -1.24691,0.26514c-0.65318,-0.12305 -1.22583,-0.5127 -1.58207,-1.0752c-0.32827,-0.51123 -0.4356,-1.08984 -0.30104,-1.68457c0.21085,-0.93311 0.77354,-1.32275 1.54517,-1.81348z" fill="#f1dedd"/><path d="M104.75148,178.30078c0.60208,0.1582 1.11748,0.28857 1.61311,0.68262l-0.0019,0.02051c-0.45786,0.13623 -0.9529,0.07764 -1.4071,0.25049c-0.3968,0.15088 -0.73693,0.4292 -0.88862,0.83643c-0.16062,0.43213 -0.13661,1.04443 0.06545,1.45898c0.2003,0.41016 0.53077,0.61084 0.93841,0.76904c0.44146,-0.00439 0.68188,-0.22852 1.01147,-0.48633l0.39841,0.19629l0.00483,0.25635c-0.07482,0.06885 -0.15037,0.13623 -0.23164,0.19629c-0.4479,0.33838 -1.20035,0.41309 -1.74094,0.33398c-0.44848,-0.06592 -0.8731,-0.25781 -1.13783,-0.6416c-0.42023,-0.60791 -0.36283,-1.61572 -0.19342,-2.29687c0.20572,-0.82764 0.89829,-1.17041 1.56977,-1.57617z" fill="#f1dedd"/><path d="M108.55679,99.29297c0.41539,0.50874 0.35536,2.24795 0.59944,3.02461l1.98077,0.64512c-0.55815,0.08437 -1.46801,0.13931 -1.91005,0.53379c-0.50896,0.45381 -0.44043,1.48198 -0.47338,2.11743c-0.02621,0.14399 -0.11963,0.28813 -0.18493,0.41968c-0.28772,-0.42935 -0.14496,-1.13643 -0.33721,-1.64165c-0.1533,-0.40342 -0.48363,-0.79116 -0.70633,-1.16353c-0.4211,-0.70415 0.07394,-0.54492 0.42755,-1.06597c0.39475,-0.58198 0.41832,-2.12651 0.60413,-2.86948z" fill="#e8cbc4"/><path d="M55.35561,180.34717c0.00893,-0.01904 0.0186,-0.03662 0.02679,-0.05713c0.33018,-0.77344 -0.23691,-1.16162 0.71189,-1.59961c0.10425,0.04395 0.21568,0.0498 0.2577,0.16113c0.31187,0.82471 -0.23632,1.62305 0.64923,2.20313c0.68393,-0.54932 0.6321,-2.10059 1.15394,-2.88867c0.36473,1.03564 -0.09034,2.96338 -0.54951,3.89502c-0.14774,0.30029 -0.30411,0.52148 -0.6239,0.64746c-0.33735,-0.13623 -0.47601,-0.26367 -0.61658,-0.61377c-0.17424,-0.43359 -0.25946,-0.95215 -0.3599,-1.41064l-0.35932,0.04395z" fill="#f7d2c0"/><path d="M73.2322,178.29053c1.00474,0.46289 2.70409,-0.20947 3.60618,0.26221l0.01757,0.29443c-0.0511,0.05127 -0.09869,0.10693 -0.16033,0.14795c-0.35199,0.23145 -0.9365,0.28418 -1.33916,0.20508l0.07775,2.11084c-0.03002,0.43359 -0.02709,0.97998 -0.19327,1.38428c-0.1044,0.25488 -0.11538,0.26221 -0.36825,0.36182c-0.58319,-0.59619 -0.30543,-2.78467 -0.40427,-3.64746c-0.38245,-0.35596 -0.78188,-0.18457 -1.25614,-0.38525c-0.12768,-0.32812 -0.06823,-0.40283 0.01991,-0.73389z" fill="#e8cbc4"/><path d="M74.93858,83.91357c0.00395,-0.74531 -0.23003,-1.02642 0.24525,-1.70625c0.79301,1.34341 0.80985,1.17788 1.92674,2.10132c0.58319,0.80054 1.14823,1.63081 1.77183,2.39956c-0.19371,0.21724 -0.36605,0.42363 -0.61643,0.57773l-0.98131,-1.31104c-0.84938,-0.63721 -1.66685,-1.23735 -2.34609,-2.06133z" fill="#4f3430"/><path d="M77.28467,85.9749c-0.229,-0.48721 -0.75597,-1.06948 -0.71512,-1.61279l0.54102,-0.05347c0.58319,0.80054 1.14823,1.63081 1.77183,2.39956c-0.19371,0.21724 -0.36605,0.42363 -0.61643,0.57773z" fill="#e8cbc4"/><path d="M49.10552,118.57764c0.54966,0.08716 0.7567,-0.11396 1.18161,-0.40005c-0.43911,1.14478 -0.13559,2.06719 0.25316,3.18193l-0.50383,-0.29897c-0.3025,0.09258 -0.3495,0.16362 -0.55947,0.38848l-0.25155,-1.13936c-0.87164,0.23716 -4.3582,1.31001 -5.04213,0.93164c0.27527,-0.84814 3.87237,-0.87231 4.78618,-1.43628c0.24584,-0.43755 0.16062,-0.73242 0.13602,-1.22739z" fill="#e8cbc4"/><path d="M81.31781,181.34619c-0.03748,-0.17139 -0.10645,-0.2666 -0.21055,-0.40723c-0.3927,-0.0542 -0.72639,-0.09814 -1.1226,-0.02197c-0.4766,0.40723 -0.6116,1.41357 -0.7589,2.01123l-0.16048,-0.00879c-0.19635,-0.30615 -0.23369,-0.55664 -0.26487,-0.9082c-0.08302,-0.93457 -0.40866,-2.9458 0.20704,-3.67969l0.34379,0.05566c0.3148,0.45703 0.25975,1.21436 0.29035,1.75635c0.29138,0.14209 0.76197,0.13916 1.07926,0.07471c0.40705,-0.08496 0.4438,-0.12744 0.67456,-0.47754c-0.00454,0.52734 -0.04114,1.07959 0.03822,1.60107z" fill="#e8cbc4"/><path d="M79.42328,89.05078l0.30807,-0.12891c0.30704,0.10034 0.48377,0.06138 0.78774,-0.0334c-0.87867,1.60723 -1.91283,3.58213 -3.78613,4.16001l-0.15945,-0.12642c0.28552,-1.02861 1.40358,-1.83325 2.04256,-2.65518c0.29884,-0.38438 0.50661,-0.83906 0.80721,-1.21611z" fill="#e8cbc4"/><path d="M64.84291,180.75439c0.28537,-0.10693 0.29592,-0.10693 0.42213,-0.38379c0.25624,-0.56543 0.13588,-1.43701 0.57382,-1.87939l0.28127,-0.00879c0.4643,0.68408 0.49124,1.58057 1.01879,2.21191l0.19576,0.03223c-0.1842,0.42334 -0.59154,0.6123 -0.73474,1.00195c-0.42037,-0.45117 -0.50837,-1.60693 -0.63532,-2.2251c-0.13646,0.96533 -0.16399,2.58398 -0.90253,3.271l-0.25199,-0.03955c-0.16165,-0.25342 -0.19957,-0.42041 -0.22724,-0.71777l0.30616,0.21826c0.18054,-0.43359 0.02167,-1.021 -0.04612,-1.48096z" fill="#e8cbc4"/><path d="M53.27835,110.48906l0.54908,0.32021l-0.66182,0.74634c-1.34428,0.7771 -2.71229,1.52373 -3.9346,2.48745l-0.20733,-0.02988l-0.24921,-0.38262c1.02977,-1.30474 3.09371,-2.26934 4.50388,-3.1415z" fill="#f1dedd"/><path d="M55.64596,180.72803c-0.0186,0.44238 -0.06706,0.91992 -0.23178,1.33447c-0.14217,0.35742 -0.25126,0.56104 -0.60398,0.71191c-0.10132,-0.04834 -0.18054,-0.0835 -0.25521,-0.16992c-0.71424,-0.8335 -1.06828,-3.04687 -1.02787,-4.11914l0.19181,-0.12891c0.67456,0.33838 0.65259,2.06689 0.95085,2.78467l0.16209,0.06006l0.52374,-0.854z" fill="#e8cbc4"/><path d="M70.66955,178.15137c0.20118,0.04248 0.38421,0.11719 0.57646,0.18896c0.24906,0.42773 0.24628,0.93164 0.2599,1.41504c0.01728,0.6123 0.10747,2.48145 -0.2719,2.88135l-0.25448,0.19336l-0.2044,-0.04687c-0.44146,-0.74707 -0.31422,-3.73535 -0.10557,-4.63184z" fill="#f1dedd"/><path d="M119.03462,165.69873c0.78393,-0.90967 2.00069,-3.21094 2.87921,-3.72803c0.16179,0.28857 0.08536,0.54346 -0.00249,0.85693c-0.21787,0.7749 -1.08468,2.41699 -1.77564,2.87549c-0.10469,0.07031 -0.1167,0.06445 -0.22153,0.09082c-0.32578,-0.06299 -0.4069,0.02344 -0.70003,0.16406z" fill="#e8cbc4"/><path d="M67.33468,180.72656c0.20338,-0.77344 0.36956,-1.88232 0.91454,-2.47119l0.2473,0.00293c0.20572,0.7207 -0.58656,3.74707 -0.99405,4.43555c-0.09063,0.15381 -0.17219,0.22266 -0.32286,0.31348c-0.26985,-0.11865 -0.31641,-0.20068 -0.42579,-0.48047c-0.09488,-0.24463 -0.11801,-0.54053 -0.15389,-0.79834c0.1432,-0.38965 0.55054,-0.57861 0.73474,-1.00195z" fill="#f7d2c0"/><path d="M72.06596,165.375c0.22256,0.03955 0.44439,0.08203 0.66504,0.13037l0.04378,0.14209c-0.30133,0.87158 -1.65748,2.19873 -2.4808,2.6001c-0.24643,0.12012 -0.31905,0.09521 -0.57719,0.05273c-0.11348,-0.02637 -0.15272,-0.08643 -0.23779,-0.1626l0.24086,-0.74121c0.05256,-0.00293 0.1331,-0.00293 0.18786,-0.01758c0.65464,-0.18311 1.81956,-1.4165 2.15823,-2.00391z" fill="#e8cbc4"/><path d="M64.58286,182.01709c-0.11494,-0.08936 -0.18156,-0.19629 -0.25609,-0.3208c-0.28171,-0.46582 -0.87706,-2.57227 -0.74572,-3.03369c0.03133,-0.1084 0.16238,-0.13184 0.25931,-0.18018l0.2473,0.09082c0.42315,0.58301 0.4968,1.42969 0.72932,2.10645l0.02592,0.07471c0.06779,0.45996 0.22666,1.04736 0.04612,1.48096z" fill="#f1dedd"/><path d="M78.8824,86.7082c0.26897,0.31479 0.75846,1.06392 1.13007,1.17085c-0.07131,0.35874 -0.13412,0.70503 -0.28113,1.04282l-0.30807,0.12891c-0.07965,-0.56118 -0.85055,-1.22197 -1.15731,-1.76484c0.25038,-0.1541 0.42272,-0.3605 0.61643,-0.57773z" fill="#d6b0a6"/><path d="M41.34496,137.38579c0.1514,-0.00601 0.30734,-0.01523 0.45844,-0.00381c0.38728,0.02974 0.43955,0.07559 0.68569,0.35361c0.04817,0.46436 -0.14598,0.81929 -0.33252,1.2312c-0.41876,-0.06489 -0.6605,-0.14429 -0.93372,-0.47886c-0.08434,-0.48853 -0.03221,-0.6479 0.12211,-1.10215z" fill="#b9aeb2"/><path d="M81.39541,179.74072c-0.08112,-0.36035 -0.1492,-0.60645 0.00644,-0.9624l0.22798,-0.10986c0.2618,0.21387 0.4334,0.36768 0.47455,0.73096c0.04085,0.36182 0.00498,0.76465 -0.01025,1.12793c-0.25111,0.09668 -0.46005,0.35889 -0.58466,0.60791c-0.05213,0.104 -0.04993,0.10986 -0.07585,0.20654c-0.07936,-0.52148 -0.04275,-1.07373 -0.03822,-1.60107z" fill="#f1dedd"/><path d="M68.04263,133.7001c0.276,0.2666 0.52111,0.52808 0.75538,0.83364c-0.07204,0.45791 -0.2801,0.55503 -0.60969,0.86909c-0.35155,-0.0917 -0.63868,-0.26001 -0.83664,-0.56528c-0.00659,-0.45688 0.40793,-0.81343 0.69096,-1.13745z" fill="#e8cbc4"/><path d="M81.43363,181.3418c0.02592,-0.09668 0.02372,-0.10254 0.07585,-0.20654c0.1246,-0.24902 0.33355,-0.51123 0.58466,-0.60791c0.03997,0.76025 0.15081,1.75781 -0.37659,2.38184l-0.17307,-0.07031c-0.15667,-0.50537 -0.2044,-0.96387 -0.22666,-1.49268z" fill-opacity="0.98824" fill="#f1dedd"/><path d="M87.23245,91.76836c0.13031,0.04951 0.25331,0.11484 0.36459,0.19937c0.763,0.58008 1.03504,1.8728 1.19171,2.76431l-0.35522,-0.17842c-0.3763,-0.92827 -0.93358,-1.82227 -1.20108,-2.78525z" fill-opacity="0.01569" fill="#b9aeb2"/><path d="M67.82343,88.80483c0.18508,-0.10942 0.41583,-0.10576 0.59739,0.00967c0.18141,0.11528 0.28288,0.32271 0.26253,0.53687c-0.02035,0.21401 -0.15916,0.39858 -0.35902,0.47769c-0.27747,0.10957 -0.59242,-0.0126 -0.72346,-0.28066c-0.13105,-0.26792 -0.03412,-0.59165 0.22256,-0.74355z" fill="#f1dedd"/></g></svg></svg>